<?xml version="1.0" encoding="UTF-8" standalone="no"?>
<!-- Created with Inkscape (http://www.inkscape.org/) -->

<svg
   width="512"
   height="512"
   viewBox="0 0 512 512"
   version="1.1"
   id="svg1"
   inkscape:version="1.4 (e7c3feb100, 2024-10-09)"
   sodipodi:docname="cpnk1.svg"
   xml:space="preserve"
   xmlns:inkscape="http://www.inkscape.org/namespaces/inkscape"
   xmlns:sodipodi="http://sodipodi.sourceforge.net/DTD/sodipodi-0.dtd"
   xmlns="http://www.w3.org/2000/svg"
   xmlns:svg="http://www.w3.org/2000/svg"><sodipodi:namedview
     id="namedview1"
     pagecolor="#505050"
     bordercolor="#ffffff"
     borderopacity="1"
     inkscape:showpageshadow="0"
     inkscape:pageopacity="0"
     inkscape:pagecheckerboard="1"
     inkscape:deskcolor="#505050"
     inkscape:document-units="px"
     inkscape:zoom="0.70710678"
     inkscape:cx="-55.861436"
     inkscape:cy="344.361"
     inkscape:window-width="1916"
     inkscape:window-height="1052"
     inkscape:window-x="0"
     inkscape:window-y="0"
     inkscape:window-maximized="0"
     inkscape:current-layer="layer1"><inkscape:page
       x="0"
       y="0"
       width="512"
       height="512"
       id="page2"
       margin="0"
       bleed="0" /></sodipodi:namedview><defs
     id="defs1" /><g
     inkscape:label="Layer 1"
     inkscape:groupmode="layer"
     id="layer1"><rect
       style="fill:#141616;fill-opacity:1;stroke-width:15;stroke-linecap:square"
       id="rect1"
       width="512"
       height="512"
       x="0"
       y="0"
       sodipodi:type="rect" /><g
       id="g47"
       transform="translate(7.6251377)"><g
         id="g1"
         transform="translate(608.31326,159.74872)"
         style="opacity:1"><g
           id="g6"
           style="stroke:#b4ff51;stroke-opacity:1"
           transform="matrix(1.3545652,0,0,1.3545652,160.37464,-2.6123265)"><path
             style="fill:#ffa544;stroke:#b4ff51;stroke-width:15;stroke-linecap:square;stroke-opacity:1"
             d="m -452.31355,7.3676901 45.00001,-63.9999991"
             id="path4" /><path
             style="fill:#ffa544;stroke:#b4ff51;stroke-width:15;stroke-linecap:square;stroke-opacity:1"
             d="m -452.31355,7.3676901 1e-5,-63.9999991"
             id="path5" /><path
             style="fill:#ffa544;stroke:#b4ff51;stroke-width:15;stroke-linecap:square;stroke-opacity:1"
             d="m -452.31354,7.367691 -45,-64"
             id="path6" /></g><path
           style="fill:#ffa544;fill-opacity:1;stroke:#c97600;stroke-width:15;stroke-linecap:square;stroke-opacity:1"
           d="m -542.31355,7.3676941 90,255.9999759 90,-255.9999839 z"
           id="path2" /></g><g
         id="g46"><path
           style="fill:#fff6ee;fill-opacity:1;stroke:#c7bfb9;stroke-width:10;stroke-linecap:square;stroke-linejoin:miter;stroke-dasharray:none;stroke-opacity:1"
           d="m 319.86668,169.44995 56.42481,15.11899 30.38881,30.38884 18.29528,31.68831 11.36114,42.40043 v 26.50839 l -16.19792,28.05562 -29.94964,17.29144 h -35.17461 l -30.69291,8.22413 -18.51527,18.51528 7.08419,26.43856 v 19.32376 l -11.7079,6.75956 h -24.73397 l -23.25375,-6.23084 -33.23021,-19.18546 -16.87441,-16.87443 -15.73712,-27.2575 -8.72518,-32.56279 -5.74423,-21.43774 v -23.80234 l 12.69808,-47.38994 36.5557,-36.55567 20.53724,-11.85719 37.95646,-21.91418 z"
           id="use32" /><path
           style="opacity:1;fill:#00b9ff;fill-opacity:1;stroke:#0091c9;stroke-width:3;stroke-linecap:square;stroke-linejoin:miter;stroke-dasharray:none;stroke-opacity:1"
           d="m 209.03422,271.82481 16.49918,6.03327 7.81244,15.02376 0.94125,15.21283 -23.38928,8.47944 -17.77842,-7.47126 5.22977,-13.11493 -3.39681,-13.58905 z"
           id="path39"
           sodipodi:nodetypes="ccccccccc" /><path
           style="opacity:1;fill:#00ff39;fill-opacity:1;stroke:#00c82a;stroke-width:3;stroke-linecap:square;stroke-linejoin:miter;stroke-dasharray:none;stroke-opacity:1"
           d="m 249.67522,221.25813 -11.78818,12.55114 3.4928,19.27499 17.90058,8.96509 18.77379,-1.79302 6.11238,-9.41336 2.6196,-9.86161 -10.91498,-8.51685 -10.0418,1.79301 -7.85878,-3.13778 -2.18301,-6.27558 z"
           id="path40" /><path
           style="opacity:1;fill:#ff002b;fill-opacity:1;stroke:#ca0020;stroke-width:3;stroke-linecap:square;stroke-linejoin:miter;stroke-dasharray:none;stroke-opacity:1"
           d="m 330.44842,193.92404 -19.92388,9.41095 -1.69566,20.39038 11.44564,13.33218 21.40757,-2.35274 9.74998,-13.7243 -9.74998,-20.39039 z"
           id="path41" /><path
           style="opacity:1;fill:#ff9800;fill-opacity:1;stroke:#c97600;stroke-width:3;stroke-linecap:square;stroke-linejoin:miter;stroke-dasharray:none;stroke-opacity:1"
           d="m 378.27922,249.43192 -10.36618,12.65086 c 0,0 -0.62198,10.20948 0,11.09725 0.62196,0.88778 8.91491,7.99003 8.91491,7.99003 l 7.67098,5.99251 7.04901,7.54611 8.91492,-0.44388 8.91492,-10.65335 1.45126,-17.53366 -7.46366,-9.09974 -13.89069,-5.54863 z"
           id="path42" /></g></g></g></svg>
