<?xml version="1.0" encoding="UTF-8" standalone="no"?>
<!-- Created with Inkscape (http://www.inkscape.org/) -->

<svg
   width="512"
   height="512"
   viewBox="0 0 512 512"
   version="1.1"
   id="svg1"
   inkscape:version="1.4 (e7c3feb100, 2024-10-09)"
   sodipodi:docname="iconcolor.svg"
   xml:space="preserve"
   xmlns:inkscape="http://www.inkscape.org/namespaces/inkscape"
   xmlns:sodipodi="http://sodipodi.sourceforge.net/DTD/sodipodi-0.dtd"
   xmlns="http://www.w3.org/2000/svg"
   xmlns:svg="http://www.w3.org/2000/svg"><sodipodi:namedview
     id="namedview1"
     pagecolor="#505050"
     bordercolor="#ffffff"
     borderopacity="1"
     inkscape:showpageshadow="0"
     inkscape:pageopacity="0"
     inkscape:pagecheckerboard="1"
     inkscape:deskcolor="#505050"
     inkscape:document-units="px"
     inkscape:zoom="0.70710678"
     inkscape:cx="179.60512"
     inkscape:cy="454.66966"
     inkscape:window-width="1920"
     inkscape:window-height="1080"
     inkscape:window-x="0"
     inkscape:window-y="0"
     inkscape:window-maximized="0"
     inkscape:current-layer="g63"><inkscape:page
       x="0"
       y="0"
       width="512"
       height="512"
       id="page2"
       margin="0"
       bleed="0" /></sodipodi:namedview><defs
     id="defs1" /><g
     inkscape:label="Layer 1"
     inkscape:groupmode="layer"
     id="layer1"><g
       id="g64"
       transform="translate(7.6251377)"
       style="display:inline"><path
         id="path45"
         style="stroke:#11171a;stroke-opacity:1;fill:#11171a;fill-opacity:1;stroke-width:32;stroke-dasharray:none;stroke-linecap:square"
         d="M 97.511581 66.269531 L 80.89244 77.957031 L 86.732284 86.267578 L 138.3065 159.61523 L 55.411972 159.61523 L 155.99791 445.72852 L 182.27525 370.98438 L 182.69322 372.54492 L 199.08971 400.94336 L 216.89439 418.74805 L 251.26549 438.5918 L 275.79088 445.16406 L 302.52135 445.16406 L 317.89049 436.29102 L 317.89049 413.42188 L 311.38267 389.13477 L 326.91002 373.60938 L 355.67174 365.90234 L 391.52916 365.90234 L 423.79869 347.27148 L 441.3358 316.89453 L 441.3358 288.38867 L 429.63463 244.7168 L 410.6815 211.88867 L 378.87877 180.08594 L 320.16978 164.35547 L 278.96471 170.2832 L 246.17955 189.21289 L 256.5858 159.61523 L 216.95494 159.61523 L 173.69322 159.61523 L 225.26744 86.267578 L 231.10728 77.957031 L 214.48814 66.269531 L 208.64439 74.582031 L 166.15807 135.00781 L 166.15807 80.423828 L 166.15807 70.263672 L 145.83971 70.263672 L 145.83971 80.423828 L 145.83971 135.00391 L 103.35533 74.582031 L 97.511581 66.269531 z " /><g
         id="g63"
         transform="translate(608.31326,159.74872)"
         style="opacity:1"><g
           id="g61"
           style="stroke:#b4ff51;stroke-opacity:1"
           transform="matrix(1.3545652,0,0,1.3545652,160.37464,-2.6123265)"><g
             id="g56"><path
               style="fill:#ffa544;stroke:none;stroke-linecap:square"
               d="m -452.31355,7.3676901 45.00001,-63.9999991"
               id="path55" /><path
               style="fill:#b4ff51;stroke:none;stroke-linecap:square"
               d="m -409.13477,-67.082031 -4.31445,6.136719 -45,63.9999995 -4.3125,6.1347656 12.26953,8.6269529 4.31446,-6.134765 45,-64 4.3125,-6.134766 z"
               id="path56" /></g><g
             id="g58"><path
               style="fill:#ffa544;stroke:none;stroke-linecap:square"
               d="m -452.31355,7.3676901 1e-5,-63.9999991"
               id="path57" /><path
               style="fill:#b4ff51;stroke:none;stroke-linecap:square"
               d="m -459.81445,-64.132812 v 7.5 63.9999995 7.5000005 h 15 v -7.5000005 -63.9999995 -7.5 z"
               id="path58" /></g><g
             id="g60"><path
               style="fill:#ffa544;stroke:none;stroke-linecap:square"
               d="m -452.31354,7.367691 -45,-64"
               id="path59" /><path
               style="fill:#b4ff51;stroke:none;stroke-linecap:square"
               d="m -495.49219,-67.082031 -12.26953,8.628906 4.3125,6.134766 45,64 4.31445,6.134765 12.26954,-8.6269529 -4.3125,-6.1347656 -45,-63.9999995 z"
               id="path60" /></g></g><g
           id="g62"><path
             style="fill:#ffa544;stroke-linecap:square"
             d="m -542.31355,7.3676941 90,255.9999759 90,-255.9999839 -29.04456,1.3e-6 z"
             id="path61" /><path
             style="fill:#c97600;stroke-linecap:square"
             d="M -552.90039,-0.1328125 -452.31445,285.98047 -351.72656,-0.1328125 h -39.63086 z m 21.17383,15.0000005 h 140.36914 18.45703 L -452.3125,240.75586 Z"
             id="path62" /></g><g
           id="g54"
           transform="translate(-608.31326,-159.74872)"><g
             id="g50"><path
               style="fill:#fff6ee;stroke-linecap:square"
               d="m 319.86668,169.44995 56.42481,15.11899 30.38881,30.38884 18.29528,31.68831 11.36114,42.40043 v 26.50839 l -16.19792,28.05562 -29.94964,17.29144 h -35.17461 l -30.69291,8.22413 -18.51527,18.51528 7.08419,26.43856 v 19.32376 l -11.7079,6.75956 h -24.73397 l -23.25375,-6.23084 -33.23021,-19.18546 -16.87441,-16.87443 -15.73712,-27.2575 -8.72518,-32.56279 -5.74423,-21.43774 v -23.80234 l 12.69808,-47.38994 36.5557,-36.55567 20.53724,-11.85719 37.95646,-21.91418 z"
               id="path49" /><path
               style="fill:#c7bfb9;stroke-linecap:square"
               d="m 320.16992,164.35547 -41.20508,5.92773 -38.78906,22.39649 -21.10742,12.18554 -37.96875,37.96875 -13.21484,49.32032 v 25.11914 l 5.91406,22.07226 8.89453,33.19922 16.39648,28.39844 17.80469,17.80469 34.37109,19.84375 24.5254,6.57226 h 26.73046 l 15.36914,-8.87304 v -22.86915 l -6.50781,-24.2871 15.52735,-15.5254 28.76171,-7.70703 h 35.85743 l 32.26953,-18.63086 17.53711,-30.37695 V 288.38867 L 429.63477,244.7168 410.68164,211.88867 378.87891,180.08594 Z m -0.60742,10.18945 54.14062,14.50781 28.97657,28.97461 17.63672,30.54883 11.01953,41.12891 v 24.50976 l -14.85742,25.73633 -27.62891,15.95117 h -34.49414 l -32.6211,8.74024 -21.5039,21.5039 7.66015,28.5918 v 15.7793 l -8.04687,4.64648 H 277.10742 L 255.125,429.27344 223.03516,410.74609 207.0918,394.80273 192.01172,368.68555 183.45703,336.75781 177.88477,315.95703 V 293.4707 l 12.17968,-45.46093 35.14258,-35.14258 19.96875,-11.52735 37.12109,-21.43359 z"
               id="path50" /></g><path
             style="opacity:1;fill:#00b9ff;fill-opacity:1;stroke:#0091c9;stroke-width:3;stroke-linecap:square;stroke-linejoin:miter;stroke-dasharray:none;stroke-opacity:1"
             d="m 209.03422,271.82481 16.49918,6.03327 7.81244,15.02376 0.94125,15.21283 -23.38928,8.47944 -17.77842,-7.47126 5.22977,-13.11493 -3.39681,-13.58905 z"
             id="path51"
             sodipodi:nodetypes="ccccccccc" /><path
             style="opacity:1;fill:#00ff39;fill-opacity:1;stroke:#00c82a;stroke-width:3;stroke-linecap:square;stroke-linejoin:miter;stroke-dasharray:none;stroke-opacity:1"
             d="m 249.67522,221.25813 -11.78818,12.55114 3.4928,19.27499 17.90058,8.96509 18.77379,-1.79302 6.11238,-9.41336 2.6196,-9.86161 -10.91498,-8.51685 -10.0418,1.79301 -7.85878,-3.13778 -2.18301,-6.27558 z"
             id="path52" /><path
             style="opacity:1;fill:#ff002b;fill-opacity:1;stroke:#ca0020;stroke-width:3;stroke-linecap:square;stroke-linejoin:miter;stroke-dasharray:none;stroke-opacity:1"
             d="m 330.44842,193.92404 -19.92388,9.41095 -1.69566,20.39038 11.44564,13.33218 21.40757,-2.35274 9.74998,-13.7243 -9.74998,-20.39039 z"
             id="path53" /><path
             style="opacity:1;fill:#ff9800;fill-opacity:1;stroke:#c97600;stroke-width:3;stroke-linecap:square;stroke-linejoin:miter;stroke-dasharray:none;stroke-opacity:1"
             d="m 378.27922,249.43192 -10.36618,12.65086 c 0,0 -0.62198,10.20948 0,11.09725 0.62196,0.88778 8.91491,7.99003 8.91491,7.99003 l 7.67098,5.99251 7.04901,7.54611 8.91492,-0.44388 8.91492,-10.65335 1.45126,-17.53366 -7.46366,-9.09974 -13.89069,-5.54863 z"
             id="path54" /></g></g></g></g></svg>
